# Blender 3.6.2
# www.blender.org
mtllib Nightstick.mtl
o Nightstick
v 0.002122 0.095598 -0.174603
v 0.014312 0.100626 -0.174422
v 0.019377 0.112801 -0.174326
v 0.014357 0.124975 -0.174372
v -0.010467 0.100605 -0.145309
v -0.010053 0.100664 -0.174764
v -0.015495 0.112797 -0.145355
v -0.015080 0.112856 -0.174811
v -0.010437 0.124955 -0.145259
v -0.010023 0.125014 -0.174715
v 0.001762 0.130855 -0.145076
v 0.002176 0.130915 -0.174531
v 0.013943 0.124916 -0.144916
v 0.018963 0.112742 -0.144870
v 0.013898 0.100566 -0.144966
v 0.001707 0.095539 -0.145148
v -0.007450 0.103219 -0.178058
v 0.002174 0.099215 -0.177931
v -0.011424 0.112857 -0.178094
v 0.011811 0.103189 -0.177787
v 0.015814 0.112814 -0.177711
v 0.011804 0.122540 -0.177748
v 0.002218 0.127214 -0.177874
v -0.007383 0.122570 -0.178018
v 0.011804 0.122540 -0.177748
v 0.014357 0.124975 -0.174372
v -0.010467 0.100605 -0.145309
v -0.010053 0.100664 -0.174764
v -0.015080 0.112856 -0.174811
v -0.010023 0.125014 -0.174715
v 0.002176 0.130915 -0.174531
v 0.001707 0.095539 -0.145148
v 0.002122 0.095598 -0.174603
v 0.002174 0.099215 -0.177931
v -0.007450 0.103219 -0.178058
v -0.011424 0.112857 -0.178094
v -0.007383 0.122570 -0.178018
v 0.002218 0.127214 -0.177874
v 0.001715 0.100352 -0.145138
v 0.001707 0.095539 -0.145148
v -0.007059 0.104003 -0.145254
v -0.010467 0.100605 -0.145309
v -0.010682 0.112789 -0.145287
v -0.015495 0.112797 -0.145355
v -0.006980 0.121687 -0.145217
v -0.010437 0.124955 -0.145259
v 0.001754 0.125912 -0.145086
v 0.001762 0.130855 -0.145076
v 0.010476 0.121659 -0.144972
v 0.013943 0.124916 -0.144916
v 0.014150 0.112750 -0.144938
v 0.018963 0.112742 -0.144870
v 0.010500 0.103975 -0.145007
v 0.013898 0.100566 -0.144966
v 0.010858 0.122404 -0.110500
v 0.014869 0.112678 -0.110463
v 0.010865 0.103054 -0.110539
v 0.001228 0.099079 -0.110683
v 0.010476 0.121659 -0.144972
v 0.014150 0.112750 -0.144938
v 0.010500 0.103975 -0.145007
v 0.001715 0.100352 -0.145138
v -0.009549 0.102919 -0.028808
v -0.008396 0.103084 -0.110810
v -0.012370 0.112722 -0.110846
v -0.008329 0.122435 -0.110770
v 0.001272 0.127079 -0.110626
v 0.010858 0.122404 -0.110500
v 0.000075 0.098914 -0.028680
v 0.001228 0.099079 -0.110683
v 0.001715 0.100352 -0.145138
v -0.007059 0.104003 -0.145254
v -0.010682 0.112789 -0.145287
v -0.006980 0.121687 -0.145217
v 0.001754 0.125912 -0.145086
v 0.010476 0.121659 -0.144972
v -0.009549 0.102919 -0.028808
v -0.008396 0.103084 -0.110810
v -0.013523 0.112556 -0.028844
v -0.012370 0.112722 -0.110846
v -0.009482 0.122269 -0.028768
v -0.008329 0.122435 -0.110770
v 0.000119 0.126914 -0.028623
v 0.001272 0.127079 -0.110626
v 0.009705 0.122239 -0.028498
v 0.010858 0.122404 -0.110500
v 0.013715 0.112513 -0.028461
v 0.014869 0.112678 -0.110463
v 0.009711 0.102889 -0.028537
v 0.010865 0.103054 -0.110539
v 0.000075 0.098914 -0.028680
v 0.001228 0.099079 -0.110683
v 0.000070 0.095906 -0.028686
v 0.000075 0.098914 -0.028680
v -0.011679 0.100795 -0.028842
v -0.009549 0.102919 -0.028808
v -0.016531 0.112561 -0.028886
v -0.013523 0.112556 -0.028844
v -0.011643 0.124312 -0.028794
v -0.009482 0.122269 -0.028768
v 0.000123 0.130003 -0.028617
v 0.000119 0.126914 -0.028623
v 0.011872 0.124275 -0.028463
v 0.009705 0.122239 -0.028498
v 0.016723 0.112509 -0.028419
v 0.013715 0.112513 -0.028461
v 0.011835 0.100758 -0.028511
v 0.009711 0.102889 -0.028537
v -0.012473 -0.026069 0.011259
v -0.000632 -0.029980 0.012119
v -0.012473 -0.026069 0.011259
v -0.017218 -0.026038 -0.000667
v -0.012140 -0.026021 -0.012455
v -0.000214 -0.026030 -0.017197
v 0.011575 -0.026059 -0.012122
v 0.008549 -0.029951 -0.009194
v -0.000279 -0.029930 -0.012997
v -0.009210 -0.029923 -0.009444
v -0.013013 -0.029935 -0.000616
v -0.009460 -0.029959 0.008316
v -0.009460 -0.029959 0.008316
v 0.008300 -0.029987 0.008565
v 0.012103 -0.029975 -0.000262
v -0.000632 -0.029980 0.012119
v 0.008549 -0.029951 -0.009194
v -0.000279 -0.029930 -0.012997
v -0.009210 -0.029923 -0.009444
v -0.013013 -0.029935 -0.000616
v -0.009460 -0.029959 0.008316
v 0.001715 0.100352 -0.145138
v 0.001707 0.095539 -0.145148
v -0.007059 0.104003 -0.145254
v -0.010467 0.100605 -0.145309
v 0.016481 0.112693 0.000170
v 0.012201 0.592448 0.012851
v 0.000275 0.592457 0.017596
v -0.000470 0.112647 0.016620
v 0.011681 0.100630 -0.011497
v 0.016320 -0.026091 -0.000195
v 0.011241 -0.026107 0.011593
v 0.008300 -0.029987 0.008565
v 0.011457 0.112638 0.011875
v -0.000685 -0.026098 0.016338
v -0.000632 -0.029980 0.012119
v -0.016986 0.112746 -0.000300
v -0.012258 0.112676 0.011542
v -0.012473 -0.026069 0.011259
v -0.017218 -0.026038 -0.000667
v -0.011933 0.100668 -0.011829
v -0.012140 -0.026021 -0.012455
v -0.000043 0.095852 -0.016906
v -0.000214 -0.026030 -0.017197
v 0.011681 0.100630 -0.011497
v 0.011575 -0.026059 -0.012122
v 0.016320 -0.026091 -0.000195
v 0.008549 -0.029951 -0.009194
v 0.012103 -0.029975 -0.000262
v 0.011241 -0.026107 0.011593
v 0.008300 -0.029987 0.008565
v 0.011786 0.124414 -0.011724
v 0.017279 0.592464 0.001063
v 0.012534 0.592496 -0.010863
v 0.000746 0.592524 -0.015940
v -0.011180 0.592533 -0.011196
v -0.016258 0.592517 0.000592
v -0.011514 0.592486 0.012518
v 0.000011 0.130031 -0.016836
v -0.011901 0.124410 -0.011965
v -0.016986 0.112746 -0.000300
v -0.012258 0.112676 0.011542
v 0.000070 0.095906 -0.028686
v 0.000075 0.098914 -0.028680
v -0.011679 0.100795 -0.028842
v -0.009549 0.102919 -0.028808
v 0.017279 0.592464 0.001063
v 0.009271 0.596350 0.009840
v 0.013074 0.596362 0.001012
v 0.012534 0.592496 -0.010863
v 0.009521 0.596385 -0.007919
v 0.000746 0.592524 -0.015940
v 0.000693 0.596407 -0.011722
v -0.011180 0.592533 -0.011196
v -0.008238 0.596413 -0.008169
v -0.016258 0.592517 0.000592
v -0.012041 0.596401 0.000659
v -0.011514 0.592486 0.012518
v -0.008488 0.596378 0.009590
v 0.011786 0.124414 -0.011724
v 0.016481 0.112693 0.000170
v 0.017279 0.592464 0.001063
v 0.012201 0.592448 0.012851
v 0.009271 0.596350 0.009840
v 0.000340 0.596356 0.013393
v 0.000275 0.592457 0.017596
v -0.008488 0.596378 0.009590
v -0.011514 0.592486 0.012518
v -0.000470 0.112647 0.016620
v -0.012258 0.112676 0.011542
v -0.000685 -0.026098 0.016338
v -0.012473 -0.026069 0.011259
v -0.000632 -0.029980 0.012119
v -0.016986 0.112746 -0.000300
v -0.016531 0.112561 -0.028886
v -0.011901 0.124410 -0.011965
v -0.011643 0.124312 -0.028794
v 0.000340 0.596356 0.013393
v -0.008488 0.596378 0.009590
v 0.009271 0.596350 0.009840
v -0.012041 0.596401 0.000659
v -0.008238 0.596413 -0.008169
v 0.000693 0.596407 -0.011722
v 0.009521 0.596385 -0.007919
v 0.013074 0.596362 0.001012
v -0.000043 0.095852 -0.016906
v 0.000070 0.095906 -0.028686
v 0.011681 0.100630 -0.011497
v 0.011835 0.100758 -0.028511
v 0.016723 0.112509 -0.028419
v 0.016481 0.112693 0.000170
v 0.011786 0.124414 -0.011724
v 0.011872 0.124275 -0.028463
v 0.000123 0.130003 -0.028617
v 0.000011 0.130031 -0.016836
v -0.011901 0.124410 -0.011965
v -0.011643 0.124312 -0.028794
v -0.016986 0.112746 -0.000300
v -0.016531 0.112561 -0.028886
v -0.011933 0.100668 -0.011829
v -0.011679 0.100795 -0.028842
v 0.000070 0.095906 -0.028686
v -0.000043 0.095852 -0.016906
v 0.002174 0.099215 -0.177931
v 0.011811 0.103189 -0.177787
v 0.002122 0.095598 -0.174603
v 0.014312 0.100626 -0.174422
v 0.015814 0.112814 -0.177711
v 0.019377 0.112801 -0.174326
v 0.011804 0.122540 -0.177748
v 0.014357 0.124975 -0.174372
vn 0.9244 0.3812 0.0138
vn 0.9999 -0.0016 0.0141
vn 0.7266 -0.6870 0.0088
vn -0.0016 -1.0000 -0.0020
vn -0.7288 -0.6847 -0.0116
vn -0.9999 0.0016 -0.0141
vn -0.7059 0.7082 -0.0085
vn -0.3812 0.9245 -0.0035
vn -0.0141 -0.0020 0.9999
vn 0.3841 0.9233 0.0073
vn 0.3558 0.8662 0.3510
vn 0.4815 0.7172 0.5037
vn 0.2616 0.6514 0.7122
vn 0.4702 0.4776 0.7422
vn 0.6682 -0.0026 0.7440
vn 0.4860 -0.4706 0.7365
vn -0.0115 -0.6703 0.7420
vn -0.3198 -0.6370 0.7014
vn 0.0141 0.0020 -0.9999
vn -0.9244 -0.3811 0.0185
vn -0.9998 0.0015 0.0208
vn -0.7060 0.7077 0.0264
vn -0.3815 0.9239 0.0287
vn 0.3838 0.9231 0.0233
vn 0.6038 0.7965 0.0331
vn 0.3834 0.9227 0.0395
vn 0.7072 0.7055 0.0463
vn 0.9988 -0.0016 0.0489
vn 0.7257 -0.6866 0.0433
vn -0.0021 -0.9994 0.0338
vn -0.4384 -0.8985 0.0243
vn 0.2787 -0.7062 -0.6509
vn 0.0084 -0.7329 -0.6802
vn 0.2786 -0.7061 -0.6510
vn 0.0083 -0.7329 -0.6802
vn -0.4742 -0.7328 -0.4881
vn -0.4741 -0.7328 -0.4881
vn -0.6797 -0.7334 -0.0110
vn -0.6581 -0.7066 0.2599
vn 0.2809 0.7080 -0.6480
vn 0.0015 1.0000 0.0020
vn 0.0016 1.0000 0.0020
vn 0.9248 -0.0001 -0.3804
vn 0.9688 -0.0018 0.2478
vn 0.9346 -0.0021 0.3556
vn 0.6976 -0.0025 0.7165
vn 0.6098 -0.2376 0.7561
vn 0.3697 -0.0025 0.9292
vn 0.3465 -0.3465 0.8717
vn 0.2603 -0.7088 0.6556
vn 0.3806 -0.0025 0.9247
vn 0.9287 -0.0007 -0.3708
vn 0.9291 -0.0006 -0.3697
vn 0.9932 -0.0014 -0.1163
vn 0.9999 -0.0022 0.0145
vn 0.7854 -0.0037 0.6189
vn 0.6972 -0.0034 0.7168
vn -0.0157 -0.0036 0.9999
vn -0.0149 -0.0037 0.9999
vn -0.4651 -0.0018 0.8852
vn -0.7564 0.2334 0.6111
vn -0.8492 0.5074 0.1462
vn -0.6559 0.7076 0.2628
vn -0.6774 0.7356 -0.0080
vn -0.6483 0.7087 -0.2783
vn 0.9292 -0.0008 -0.3697
vn 0.4136 0.0010 -0.9104
vn 0.7170 0.0002 -0.6971
vn 0.0101 0.0019 -0.9999
vn 0.0140 0.0018 -0.9999
vn -0.7893 0.0023 -0.6140
vn -0.6970 0.0023 -0.7171
vn -0.9936 0.0013 0.1133
vn -0.9999 0.0015 -0.0141
vn -0.9287 0.0007 0.3708
vn -0.9292 0.0007 0.3697
vn 0.6505 0.7055 0.2812
vn 0.6793 0.7322 -0.0494
vn 0.6797 0.7334 0.0110
vn 0.4877 0.7347 -0.4716
vn 0.0107 0.7358 -0.6771
vn -0.4719 0.7362 -0.4851
vn -0.4719 0.7362 -0.4850
vn -0.9299 0.0009 0.3679
vn -0.9378 0.0009 0.3472
vn -0.9098 -0.1640 -0.3813
vn -0.7106 -0.4964 -0.4987
vn -0.4456 -0.7322 -0.5151
vn 0.0084 -0.7331 -0.6800
vn 0.1750 -0.4940 -0.8517
vn 0.3709 -0.3430 -0.8630
vn 0.3956 0.0013 -0.9184
vn 0.3720 0.3454 -0.8616
vn 0.3903 0.1691 -0.9050
vn -0.9231 0.3841 -0.0164
vn -0.9230 0.3845 -0.0167
vn -0.9228 0.3848 -0.0170
vn -0.9227 0.3850 -0.0172
vn -0.0015 -1.0000 -0.0020
vn 0.3777 -0.9259 -0.0007
vn 0.3798 -0.9250 -0.0023
vn 0.7948 -0.6069 0.0055
vn 0.7061 -0.7081 0.0011
vn 1.0000 -0.0033 0.0058
vn 1.0000 -0.0037 0.0085
vn 0.8058 0.5922 0.0023
vn 0.7291 0.6844 -0.0020
vn -0.0000 1.0000 -0.0065
vn 0.0008 1.0000 -0.0023
vn -0.4323 0.9017 -0.0094
vn -0.4353 0.9002 -0.0120
vn -0.9266 -0.3758 -0.0123
vn -0.9253 -0.3790 -0.0149
vn -0.7957 -0.6056 -0.0134
vn -0.7086 -0.7054 -0.0159
vn -0.3817 -0.9242 -0.0107
vn -0.3783 -0.9257 -0.0079
vn -0.2795 0.6523 0.7046
vn -0.4894 0.4791 0.7287
vn -0.6889 -0.0004 0.7249
vn -0.6636 -0.2710 0.6973
vt 0.904569 0.625089
vt 0.904569 0.717530
vt 0.861038 0.625090
vt 0.861039 0.717530
vt 0.816754 0.625090
vt 0.816754 0.717531
vt 0.771740 0.625091
vt 0.771741 0.717531
vt 0.726727 0.625091
vt 0.726728 0.717532
vt 0.682442 0.625092
vt 0.682443 0.717532
vt 0.638912 0.625092
vt 0.638912 0.717533
vt 0.595923 0.625093
vt 0.595923 0.717533
vt 0.672550 -0.036875
vt 0.631750 -0.135375
vt 0.771050 0.003924
vt 0.672550 -0.233875
vt 0.771050 -0.274674
vt 0.870452 -0.233501
vt 0.918102 -0.135375
vt 0.870452 -0.037249
vt 0.947558 0.625089
vt 0.947558 0.717529
vt 0.947558 0.727994
vt 0.904820 0.727995
vt 0.861407 0.727995
vt 0.816593 0.727996
vt 0.771741 0.727996
vt 0.726888 0.727997
vt 0.705289 0.935956
vt 0.679697 0.961548
vt 0.771318 0.963305
vt 0.771318 0.999499
vt 0.838275 0.935571
vt 0.862805 0.961603
vt 0.870151 0.869927
vt 0.907324 0.869927
vt 0.838275 0.804284
vt 0.862805 0.778252
vt 0.771318 0.776550
vt 0.771318 0.740356
vt 0.705289 0.803899
vt 0.679697 0.778307
vt 0.677940 0.869927
vt 0.641746 0.869927
vt 0.726561 0.470957
vt 0.726635 0.611937
vt 0.681655 0.470957
vt 0.681484 0.611937
vt 0.638153 0.470957
vt 0.638037 0.611937
vt 0.595326 0.470957
vt 0.595326 0.611937
vt 0.947684 0.135455
vt 0.947684 0.470957
vt 0.904858 0.135455
vt 0.904858 0.470957
vt 0.947684 0.611937
vt 0.904973 0.611937
vt 0.861356 0.470957
vt 0.861526 0.611937
vt 0.816450 0.470957
vt 0.816375 0.611937
vt 0.771505 0.470957
vt 0.771505 0.611937
vt 0.861356 0.135455
vt 0.816450 0.135455
vt 0.771505 0.135455
vt 0.726561 0.135455
vt 0.681655 0.135455
vt 0.638153 0.135455
vt 0.595326 0.135455
vt 0.682896 0.958349
vt 0.698891 0.942354
vt 0.771318 0.994975
vt 0.771318 0.972354
vt 0.859739 0.958349
vt 0.844407 0.942079
vt 0.902677 0.869927
vt 0.879444 0.869927
vt 0.859739 0.781506
vt 0.844407 0.797776
vt 0.771318 0.744881
vt 0.771318 0.767501
vt 0.682896 0.781506
vt 0.698891 0.797501
vt 0.646271 0.869927
vt 0.668891 0.869927
vt 0.265559 0.999500
vt 0.329009 0.999500
vt 0.265558 0.993295
vt 0.329014 0.993295
vt 0.392459 0.999500
vt 0.392459 0.993295
vt 0.455909 0.999500
vt 0.455910 0.993295
vt 0.519362 0.999500
vt 0.519362 0.993295
vt 0.073409 0.999500
vt 0.009955 0.999500
vt 0.009956 0.993295
vt 0.679246 0.775954
vt 0.771996 0.737535
vt 0.640828 0.868704
vt 0.864746 0.775954
vt 0.903165 0.868704
vt 0.864746 0.961454
vt 0.771996 0.999872
vt 0.679246 0.961454
vt 0.264575 0.791225
vt 0.201700 0.771936
vt 0.202107 0.993295
vt 0.138654 0.771998
vt 0.138654 0.993295
vt 0.075201 0.771998
vt 0.075201 0.993295
vt 0.138655 0.999500
vt 0.075201 0.999500
vt 0.075201 0.006705
vt 0.138654 0.006705
vt 0.519362 0.771998
vt 0.456315 0.771936
vt 0.393682 0.791225
vt 0.329093 0.798894
vt 0.202107 0.999500
vt 0.202107 0.006705
vt 0.265316 0.753291
vt 0.265558 0.006705
vt 0.329093 0.744379
vt 0.329010 0.006705
vt 0.393066 0.753357
vt 0.392459 0.006705
vt 0.455910 0.006705
vt 0.519362 0.006705
vt 0.138655 0.000500
vt 0.202107 0.000500
vt 0.265558 0.000500
vt 0.329008 0.000500
vt 0.392458 0.000500
vt 0.455909 0.000500
vt 0.519362 0.000500
vt 0.075202 0.000500
vt 0.011748 0.000500
vt 0.011748 0.006705
vt 0.009956 0.771998
vt 0.073409 0.993295
vt 0.816589 0.135455
vt 0.861037 0.135455
vt 0.816316 0.066601
vt 0.860219 0.018498
vt 0.640828 0.868703
vt 0.679246 0.961453
vt 0.679246 0.775953
vt 0.771996 0.999871
vt 0.864746 0.961453
vt 0.903165 0.868703
vt 0.864746 0.775953
vt 0.771996 0.737534
vt 0.595500 0.087260
vt 0.638358 0.065848
vt 0.638369 0.135455
vt 0.681973 0.135455
vt 0.682796 0.018498
vt 0.726494 0.066978
vt 0.726421 0.135455
vt 0.771332 0.087260
vt 0.904820 0.065848
vt 0.904641 0.135455
vt 0.947329 0.087260
vt 0.595923 0.727998
vt 0.638662 0.727998
vt 0.682075 0.727997
s 1
usemtl mat_0
f 5/1/1 6/2/1 7/3/2
f 6/2/1 8/4/2 7/3/2
f 7/3/2 8/4/2 9/5/3
f 8/4/2 10/6/3 9/5/3
f 9/5/3 10/6/3 11/7/4
f 10/6/3 12/8/4 11/7/4
f 11/7/4 12/8/4 13/9/5
f 12/8/4 4/10/5 13/9/5
f 13/9/5 4/10/5 14/11/6
f 4/10/5 3/12/6 14/11/6
f 14/11/6 3/12/6 15/13/7
f 3/12/6 2/14/7 15/13/7
f 15/13/7 2/14/7 16/15/8
f 2/14/7 1/16/8 16/15/8
f 17/17/9 18/18/9 19/19/9
f 18/18/9 20/20/9 19/19/9
f 20/20/9 21/21/9 19/19/9
f 21/21/9 22/22/9 19/19/9
f 22/22/9 23/23/9 19/19/9
f 19/19/9 23/23/9 24/24/9
f 32/25/10 33/26/11 27/1/10
f 27/1/10 33/26/11 28/2/12
f 33/26/11 34/27/13 28/2/12
f 34/27/13 35/28/14 28/2/12
f 28/2/12 35/28/14 29/4/15
f 35/28/14 36/29/15 29/4/15
f 29/4/15 36/29/15 30/6/16
f 36/29/15 37/30/16 30/6/16
f 30/6/16 37/30/16 31/8/17
f 37/30/16 38/31/17 31/8/17
f 31/8/17 38/31/17 26/10/18
f 38/31/17 25/32/18 26/10/18
f 41/33/19 42/34/19 43/35/19
f 42/34/19 44/36/19 43/35/19
f 43/35/19 44/36/19 45/37/19
f 44/36/19 46/38/19 45/37/19
f 45/37/19 46/38/19 47/39/19
f 46/38/19 48/40/19 47/39/19
f 47/39/19 48/40/19 49/41/19
f 48/40/19 50/42/19 49/41/19
f 49/41/19 50/42/19 51/43/19
f 50/42/19 52/44/19 51/43/19
f 51/43/19 52/44/19 53/45/19
f 52/44/19 54/46/19 53/45/19
f 53/45/19 54/46/19 39/47/19
f 54/46/19 40/48/19 39/47/19
f 55/49/20 59/50/20 56/51/21
f 59/50/20 60/52/21 56/51/21
f 56/51/21 60/52/21 57/53/22
f 60/52/21 61/54/22 57/53/22
f 57/53/22 61/54/22 58/55/23
f 61/54/22 62/56/23 58/55/23
f 69/57/10 70/58/24 63/59/10
f 63/59/10 70/58/24 64/60/25
f 70/58/24 71/61/26 64/60/25
f 71/61/26 72/62/27 64/60/25
f 64/60/25 72/62/27 65/63/28
f 72/62/27 73/64/28 65/63/28
f 65/63/28 73/64/28 66/65/29
f 73/64/28 74/66/29 66/65/29
f 66/65/29 74/66/29 67/67/30
f 74/66/29 75/68/30 67/67/30
f 67/67/30 75/68/30 68/49/31
f 75/68/30 76/50/31 68/49/31
f 77/59/1 78/60/1 79/69/2
f 78/60/1 80/63/2 79/69/2
f 79/69/2 80/63/2 81/70/3
f 80/63/2 82/65/3 81/70/3
f 81/70/3 82/65/3 83/71/4
f 82/65/3 84/67/4 83/71/4
f 83/71/4 84/67/4 85/72/5
f 84/67/4 86/49/5 85/72/5
f 85/72/5 86/49/5 87/73/6
f 86/49/5 88/51/6 87/73/6
f 87/73/6 88/51/6 89/74/7
f 88/51/6 90/53/7 89/74/7
f 89/74/7 90/53/7 91/75/8
f 90/53/7 92/55/8 91/75/8
f 95/76/9 96/77/9 97/78/9
f 96/77/9 98/79/9 97/78/9
f 97/78/9 98/79/9 99/80/9
f 98/79/9 100/81/9 99/80/9
f 99/80/9 100/81/9 101/82/9
f 100/81/9 102/83/9 101/82/9
f 101/82/9 102/83/9 103/84/9
f 102/83/9 104/85/9 103/84/9
f 103/84/9 104/85/9 105/86/9
f 104/85/9 106/87/9 105/86/9
f 105/86/9 106/87/9 107/88/9
f 106/87/9 108/89/9 107/88/9
f 107/88/9 108/89/9 93/90/9
f 108/89/9 94/91/9 93/90/9
f 116/92/32 117/93/33 115/94/34
f 115/94/34 117/93/33 114/95/35
f 117/93/33 118/96/36 114/95/35
f 114/95/35 118/96/36 113/97/37
f 118/96/36 119/98/38 113/97/37
f 113/97/37 119/98/38 112/99/38
f 119/98/38 120/100/39 112/99/38
f 112/99/38 120/100/39 111/101/39
f 110/102/40 121/103/40 109/104/40
f 122/105/41 123/106/41 124/107/42
f 123/106/41 125/108/41 124/107/42
f 125/108/41 126/109/42 124/107/42
f 126/109/42 127/110/42 124/107/42
f 127/110/42 128/111/42 124/107/42
f 124/107/42 128/111/42 129/112/42
f 130/47/9 132/33/9 131/48/9
f 131/48/9 132/33/9 133/34/9
f 138/113/43 134/114/44 139/115/45
f 134/114/44 142/116/46 139/115/45
f 139/115/45 142/116/46 140/117/47
f 142/116/46 137/118/48 140/117/47
f 137/118/48 143/119/49 140/117/47
f 140/117/47 143/119/49 141/120/50
f 143/119/49 144/121/50 141/120/50
f 137/118/48 142/116/46 136/122/48
f 136/122/48 142/116/46 135/123/51
f 142/116/46 134/114/44 135/123/51
f 146/124/52 147/101/53 145/125/54
f 147/101/53 148/99/55 145/125/54
f 145/125/54 148/99/55 149/126/56
f 148/99/55 150/97/57 149/126/56
f 149/126/56 150/97/57 151/127/58
f 150/97/57 152/95/59 151/127/58
f 151/127/58 152/95/59 153/113/60
f 152/95/59 154/94/61 153/113/60
f 153/113/60 154/94/61 155/115/62
f 154/94/61 156/92/63 155/115/62
f 156/92/63 157/128/64 155/115/62
f 155/115/62 157/128/64 158/117/65
f 157/128/64 159/120/65 158/117/65
f 161/129/66 160/130/67 162/131/68
f 160/130/67 167/132/69 162/131/68
f 162/131/68 167/132/69 163/133/70
f 167/132/69 168/134/71 163/133/70
f 163/133/70 168/134/71 164/135/72
f 168/134/71 169/125/73 164/135/72
f 164/135/72 169/125/73 165/136/74
f 169/125/73 170/124/75 165/136/74
f 165/136/74 170/124/75 166/137/76
f 171/90/19 173/76/19 172/91/19
f 172/91/19 173/76/19 174/77/19
f 176/138/77 175/129/78 177/139/79
f 175/129/78 178/131/80 177/139/79
f 177/139/79 178/131/80 179/140/80
f 178/131/80 180/133/81 179/140/80
f 179/140/80 180/133/81 181/141/81
f 180/133/81 182/135/82 181/141/81
f 181/141/81 182/135/82 183/142/83
f 182/135/82 184/136/64 183/142/83
f 183/142/83 184/136/64 185/143/64
f 184/136/64 186/137/63 185/143/64
f 185/143/64 186/137/63 187/144/63
f 188/130/84 189/114/85 190/129/86
f 189/114/85 191/123/87 190/129/86
f 190/129/86 191/123/87 192/138/88
f 192/138/88 191/123/87 193/145/89
f 191/123/87 194/122/90 193/145/89
f 193/145/89 194/122/90 195/146/32
f 195/146/32 194/122/90 196/147/91
f 194/122/90 197/118/92 196/147/91
f 196/147/91 197/118/92 198/148/92
f 197/118/92 199/149/93 198/148/92
f 198/148/92 199/149/93 200/104/94
f 199/149/93 201/102/40 200/104/94
f 205/150/95 203/151/96 204/152/97
f 203/151/96 202/153/98 204/152/97
f 206/154/4 207/155/4 208/156/4
f 207/155/4 209/157/4 208/156/4
f 209/157/4 210/158/4 208/156/4
f 210/158/4 211/159/4 208/156/4
f 211/159/4 212/160/4 208/156/4
f 208/156/4 212/160/4 213/161/99
f 214/162/100 215/75/101 216/163/102
f 215/75/101 217/164/103 216/163/102
f 217/164/103 218/165/104 216/163/102
f 216/163/102 218/165/104 219/166/105
f 219/166/105 218/165/104 220/167/106
f 218/165/104 221/168/107 220/167/106
f 221/168/107 222/71/108 220/167/106
f 220/167/106 222/71/108 223/169/109
f 223/169/109 222/71/108 224/152/110
f 222/71/108 225/150/111 224/152/110
f 226/153/112 227/151/113 228/170/114
f 227/151/113 229/171/115 228/170/114
f 229/171/115 230/57/116 228/170/114
f 228/170/114 230/57/116 231/172/117
f 232/173/118 234/16/118 233/174/119
f 234/16/118 235/14/119 233/174/119
f 233/174/119 235/14/119 236/175/120
f 235/14/119 237/12/120 236/175/120
f 236/175/120 237/12/120 238/32/121
f 237/12/120 239/10/121 238/32/121
